<?xml version="1.0" standalone="no"?><!DOCTYPE svg PUBLIC "-//W3C//DTD SVG 1.1//EN" "http://www.w3.org/Graphics/SVG/1.1/DTD/svg11.dtd"><svg t="1719070014122" class="icon" viewBox="0 0 1024 1024" version="1.1" xmlns="http://www.w3.org/2000/svg" p-id="6938" xmlns:xlink="http://www.w3.org/1999/xlink" width="200" height="200"><path d="M750.933333 981.333333H264.533333c-21.333333-4.266667-38.4-8.533333-51.2-25.6-21.333333-21.333333-34.133333-51.2-34.133333-81.066666v-217.6-93.866667c0-12.8-8.533333-17.066667-12.8-17.066667l-29.866667-8.533333c-21.333333-8.533333-42.666667-12.8-64-21.333333s-38.4-17.066667-51.2-38.4c-12.8-12.8-21.333333-29.866667-21.333333-46.933334V426.666667v-4.266667-4.266667-4.266666c0-12.8 4.266667-21.333333 8.533333-34.133334 12.8-21.333333 21.333333-38.4 29.866667-55.466666l12.8-25.6c17.066667-29.866667 34.133333-59.733333 46.933333-89.6 17.066667-34.133333 34.133333-68.266667 55.466667-102.4 8.533333-17.066667 17.066667-29.866667 29.866667-38.4 17.066667-12.8 42.666667-21.333333 64-21.333334H345.6c8.533333 0 17.066667 12.8 17.066667 21.333334 0 12.8 4.266667 29.866667 8.533333 42.666666 21.333333 59.733333 72.533333 98.133333 132.266667 98.133334h4.266666c12.8 0 25.6 0 38.4-4.266667 25.6-8.533333 51.2-21.333333 68.266667-42.666667 25.6-25.6 38.4-59.733333 38.4-93.866666 0-12.8 8.533333-21.333333 17.066667-21.333334H789.333333c29.866667 4.266667 51.2 21.333333 68.266667 46.933334l12.8 25.6c0 4.266667 4.266667 8.533333 4.266667 12.8 12.8 25.6 68.266667 128 68.266666 128 4.266667 8.533333 8.533333 12.8 12.8 21.333333l12.8 25.6c4.266667 8.533333 8.533333 12.8 8.533334 21.333333 8.533333 17.066667 17.066667 29.866667 25.6 46.933334 8.533333 21.333333 12.8 42.666667 8.533333 64-4.266667 29.866667-21.333333 51.2-46.933333 64-8.533333 4.266667-17.066667 8.533333-25.6 8.533333h-4.266667c-21.333333 8.533333-42.666667 12.8-59.733333 21.333333l-21.333334 8.533334c-8.533333 4.266667-12.8 8.533333-12.8 17.066666v315.733334c0 17.066667-8.533333 29.866667-12.8 42.666666-8.533333 17.066667-21.333333 25.6-34.133333 34.133334-8.533333 25.6-25.6 29.866667-42.666667 29.866666zM196.266667 366.933333c4.266667 0 4.266667 0 0 0 12.8 0 21.333333 8.533333 21.333333 17.066667V870.4c0 8.533333 0 21.333333 4.266667 29.866667 8.533333 21.333333 25.6 34.133333 46.933333 34.133333H755.2c12.8-4.266667 21.333333-8.533333 29.866667-21.333333 8.533333-12.8 12.8-25.6 12.8-42.666667 0-8.533333 0-17.066667-17.066667-17.066667H418.133333c-8.533333-4.266667-12.8-8.533333-17.066666-17.066666-4.266667-8.533333 0-17.066667 4.266666-25.6 4.266667-4.266667 12.8-8.533333 21.333334-8.533334h358.4c4.266667 0 8.533333 0 12.8-4.266666 4.266667-4.266667 4.266667-8.533333 4.266666-12.8v-89.6-302.933334V384c4.266667-12.8 12.8-17.066667 21.333334-17.066667h8.533333c8.533333 4.266667 17.066667 12.8 17.066667 21.333334v102.4l8.533333 4.266666H870.4c12.8-4.266667 21.333333-8.533333 34.133333-12.8 4.266667 0 8.533333-4.266667 12.8-4.266666 8.533333-4.266667 17.066667-8.533333 29.866667-8.533334 21.333333-8.533333 34.133333-29.866667 29.866667-51.2 0-8.533333-4.266667-12.8-4.266667-21.333333-8.533333-21.333333-21.333333-38.4-29.866667-59.733333-25.6-46.933333-46.933333-93.866667-72.533333-140.8l-21.333333-38.4c-8.533333-12.8-12.8-25.6-21.333334-38.4-4.266667-8.533333-8.533333-12.8-12.8-17.066667-12.8-8.533333-25.6-8.533333-34.133333-8.533333h-59.733333-4.266667c-8.533333 0-12.8 4.266667-17.066667 12.8v4.266666c-8.533333 42.666667-29.866667 81.066667-64 106.666667-29.866667 25.6-68.266667 42.666667-110.933333 42.666667H512c-12.8 0-21.333333 0-34.133333-4.266667-21.333333-4.266667-42.666667-12.8-59.733334-21.333333C384 221.866667 358.4 196.266667 341.333333 162.133333c-8.533333-17.066667-12.8-34.133333-17.066666-55.466666 0-8.533333-8.533333-12.8-17.066667-12.8H234.666667c-17.066667 8.533333-34.133333 17.066667-42.666667 34.133333l-12.8 25.6S170.666667 170.666667 170.666667 174.933333l-68.266667 128-12.8 25.6-12.8 29.866667c-8.533333 12.8-12.8 29.866667-21.333333 42.666667-4.266667 8.533333-8.533333 21.333333-4.266667 29.866666 4.266667 17.066667 12.8 34.133333 34.133333 38.4 4.266667 0 4.266667 0 8.533334 4.266667h4.266666l17.066667 4.266667c12.8 4.266667 29.866667 8.533333 42.666667 12.8h8.533333l12.8 4.266666v-12.8-29.866666-59.733334V384c0-12.8 8.533333-17.066667 17.066667-17.066667z" p-id="6939"></path></svg>