<?xml version="1.0" standalone="no"?><!DOCTYPE svg PUBLIC "-//W3C//DTD SVG 1.1//EN" "http://www.w3.org/Graphics/SVG/1.1/DTD/svg11.dtd"><svg t="1719070045044" class="icon" viewBox="0 0 1024 1024" version="1.1" xmlns="http://www.w3.org/2000/svg" p-id="7970" xmlns:xlink="http://www.w3.org/1999/xlink" width="200" height="200"><path d="M512 149.333333C311.466667 149.333333 149.333333 311.466667 149.333333 512s162.133333 362.666667 362.666667 362.666667 362.666667-162.133333 362.666667-362.666667S712.533333 149.333333 512 149.333333z m0 640c-153.6 0-277.333333-123.733333-277.333333-277.333333s123.733333-277.333333 277.333333-277.333333 277.333333 123.733333 277.333333 277.333333-123.733333 277.333333-277.333333 277.333333zM512 128c25.6 0 42.666667-17.066667 42.666667-42.666667V42.666667c0-25.6-17.066667-42.666667-42.666667-42.666667s-42.666667 17.066667-42.666667 42.666667v42.666666c0 25.6 17.066667 42.666667 42.666667 42.666667z" fill="#738497" p-id="7971"></path><path d="M179.2 238.933333c8.533333 8.533333 17.066667 12.8 29.866667 12.8 12.8 0 21.333333-4.266667 29.866666-12.8 17.066667-17.066667 17.066667-42.666667 0-59.733333L209.066667 149.333333c-17.066667-17.066667-42.666667-17.066667-59.733334 0s-17.066667 42.666667 0 59.733334l29.866667 29.866666zM85.333333 469.333333H42.666667c-25.6 0-42.666667 17.066667-42.666667 42.666667s17.066667 42.666667 42.666667 42.666667h42.666666c25.6 0 42.666667-17.066667 42.666667-42.666667s-17.066667-42.666667-42.666667-42.666667zM814.933333 149.333333l-29.866666 29.866667c-17.066667 17.066667-17.066667 42.666667 0 59.733333 8.533333 8.533333 17.066667 12.8 29.866666 12.8 8.533333 0 21.333333-4.266667 29.866667-12.8L874.666667 209.066667c17.066667-17.066667 17.066667-42.666667 0-59.733334-17.066667-17.066667-42.666667-17.066667-59.733334 0zM981.333333 469.333333h-42.666666c-25.6 0-42.666667 17.066667-42.666667 42.666667s17.066667 42.666667 42.666667 42.666667h42.666666c25.6 0 42.666667-17.066667 42.666667-42.666667s-17.066667-42.666667-42.666667-42.666667zM844.8 785.066667c-17.066667-17.066667-42.666667-17.066667-59.733333 0-17.066667 17.066667-17.066667 42.666667 0 59.733333l29.866666 29.866667c8.533333 8.533333 17.066667 12.8 29.866667 12.8 8.533333 0 21.333333-4.266667 29.866667-12.8 17.066667-17.066667 17.066667-42.666667 0-59.733334l-29.866667-29.866666zM179.2 785.066667L149.333333 814.933333c-17.066667 17.066667-17.066667 42.666667 0 59.733334 8.533333 8.533333 17.066667 12.8 29.866667 12.8s21.333333-4.266667 29.866667-12.8l29.866666-29.866667c17.066667-17.066667 17.066667-42.666667 0-59.733333-17.066667-17.066667-42.666667-17.066667-59.733333 0zM469.333333 384c-17.066667 0-34.133333 12.8-29.866666 34.133333v119.466667c0 25.6-17.066667 42.666667-42.666667 42.666667s-42.666667-17.066667-42.666667-42.666667v-119.466667c0-21.333333-17.066667-34.133333-34.133333-34.133333s-29.866667 12.8-34.133333 34.133333V533.333333c0 59.733333 46.933333 106.666667 106.666666 106.666667s110.933333-46.933333 110.933334-102.4v-119.466667c0-21.333333-17.066667-34.133333-34.133334-34.133333zM512 896c-25.6 0-42.666667 17.066667-42.666667 42.666667v42.666666c0 25.6 17.066667 42.666667 42.666667 42.666667s42.666667-17.066667 42.666667-42.666667v-42.666666c0-25.6-17.066667-42.666667-42.666667-42.666667zM721.066667 384c-17.066667-8.533333-34.133333 0-42.666667 17.066667l-46.933333 115.2-46.933334-115.2c-8.533333-17.066667-25.6-21.333333-42.666666-17.066667-17.066667 8.533333-25.6 25.6-17.066667 42.666667l76.8 192c4.266667 12.8 17.066667 21.333333 29.866667 21.333333 12.8 0 21.333333-8.533333 29.866666-21.333333l76.8-192c8.533333-17.066667 0-34.133333-17.066666-42.666667z" fill="#738497" p-id="7972"></path></svg>