<?xml version="1.0" standalone="no"?><!DOCTYPE svg PUBLIC "-//W3C//DTD SVG 1.1//EN" "http://www.w3.org/Graphics/SVG/1.1/DTD/svg11.dtd"><svg t="1719069988916" class="icon" viewBox="0 0 1210 1024" version="1.1" xmlns="http://www.w3.org/2000/svg" p-id="5909" xmlns:xlink="http://www.w3.org/1999/xlink" width="236.328125" height="200"><path d="M601.367273 0C882.967273 0 1126.865455 197.818182 1210.181818 486.865455v15.36c-83.316364 289.512727-327.214545 487.330909-608.814545 487.330909S83.781818 791.738182 0 510.138182v-22.807273C83.781818 197.818182 319.767273 0 601.367273 0z m0 913.221818c251.345455 0 449.163636-197.818182 532.945454-418.443636C1057.978182 274.152727 852.247273 76.334545 601.367273 76.334545S160.116364 266.24 76.334545 494.778182c83.781818 228.072727 273.687273 418.443636 525.032728 418.443636z m265.960727-417.792c0 144.756364-122.414545 265.774545-266.705455 265.774546-144.290909 0-266.24-121.949091-266.24-266.24 0-144.290909 121.483636-266.24 266.24-266.24 30.347636 0 53.527273 7.912727 83.781819 15.36 30.254545 7.912727 30.254545 22.807273 30.254545 38.167272 0 22.807273-15.825455 38.167273-38.167273 38.167273-22.341818 0-53.061818-15.36-75.869091-15.36-106.589091 0-190.370909 83.781818-190.370909 190.370909 0 106.682182 83.781818 190.370909 190.370909 190.370909s190.370909-83.781818 190.37091-190.370909c0-37.608727-15.36-83.781818-15.36-91.229091 0-14.894545 15.36-30.254545 38.167272-30.254545 22.807273 0 38.167273 30.254545 38.167273 30.254545 7.912727 30.254545 15.36 60.974545 15.36 91.229091z" fill="#AAB1CA" p-id="5910"></path></svg>