<?xml version="1.0" standalone="no"?><!DOCTYPE svg PUBLIC "-//W3C//DTD SVG 1.1//EN" "http://www.w3.org/Graphics/SVG/1.1/DTD/svg11.dtd"><svg t="1719070078141" class="icon" viewBox="0 0 1024 1024" version="1.1" xmlns="http://www.w3.org/2000/svg" p-id="8999" xmlns:xlink="http://www.w3.org/1999/xlink" width="200" height="200"><path d="M474.1 937.7c-12.2 0-24-3.6-34.3-10.6-12.2-8.3-21-20.7-24.8-35-3.7-14.1-2.3-29.1 3.9-42.2l59.3-124.1-25.5-32.1-41.4 81.8c-6.2 12.3-16 22-28.2 28.1L196.6 897c-14.6 7.3-31.2 8.5-46.8 3.4-15.5-5.2-28.1-16.1-35.5-30.7-14-27.9-4.8-61.7 21.3-78.7l150.9-98.7 46-135.7c7.6-22.3 45.9-86.5 75.2-131.8h-24.3l-77.9 53.7c-22.9 15.8-54.5 10-70.3-12.9-13.2-19.1-11.7-44.6 3.6-62l79.8-91 0.1-0.1c14.9-16.8 39.2-18 41.9-18.1l139.1-3.8c73.7-2.7 126.4 60.7 157.9 98.6 4.3 5.2 8.3 10 11.8 13.9 16.6 18.8 32.4 29.6 40.9 34.7l84.6-28.1c0.1 0 0.2-0.1 0.4-0.1 13.6-4.2 28-2.9 40.7 3.7 12.6 6.6 21.9 17.8 26.1 31.4 7.2 23.1-2.1 48.2-22.6 61l-103.7 65c-19.3 12.1-44.1 12-63.2-0.3l-6.7-4.3-49.2-31.6c-14.6 21.3-27.5 41.1-37.8 58.5l53.6 86.5c14.3 23.1 13.7 52.5-1.5 75L525 910.7c-9.2 13.6-23.1 22.7-39.2 25.8-3.9 0.8-7.8 1.2-11.7 1.2z m-25.2-300.9c6.1 0 11.8 2.8 15.7 7.6l52.7 66.3c4.8 6 5.7 14.2 2.4 21.1L455 867.1c-4.5 9.4-1.4 21 7.3 26.8 4.7 3.2 10.4 4.4 16 3.3 5.6-1.1 10.4-4.3 13.6-9l106-156.2c6.4-9.4 6.6-21.8 0.6-31.5l-60-96.6c-3.9-6.2-4-14-0.4-20.4 14-24.8 33.6-55.1 56.8-87.8 6.2-8.7 18.1-11 27.1-5.3l72.1 46.2c6.2 3.9 14.2 4 20.4 0.1l103.7-65c5.1-3.2 7.5-9.5 5.7-15.3-1.1-3.4-3.4-6.2-6.5-7.8-3.1-1.6-6.7-2-10-1l-92.6 30.7c-4.7 1.6-9.8 1.3-14.4-0.7-1.2-0.5-30.3-13.6-60.9-48.1-3.8-4.3-8.1-9.4-12.6-14.8-28.6-34.3-71.7-86.2-125.8-84.2h-0.2l-139 3.8c-4 0.2-10.9 2-13.3 4.6l-79.7 90.9c-3.2 3.6-3.5 9-0.8 12.9 3.3 4.8 9.9 6 14.7 2.7l83-57.2c3.3-2.3 7.3-3.5 11.3-3.5H445c7.4 0 14.3 4.1 17.7 10.7 3.5 6.6 2.9 14.6-1.3 20.7-30.8 44.2-84.1 132.6-91.1 153.2l-48.2 142.2c-1.4 4.2-4.2 7.9-8 10.3L157.5 824.4c-9.1 5.9-12.2 17.7-7.4 27.3 2.5 5.1 6.9 8.9 12.3 10.7 5.4 1.8 11.2 1.4 16.2-1.2L365 767.8c4.6-2.3 8.2-5.9 10.5-10.4L431 647.8c3.1-6.1 9-10.2 15.8-10.9 0.8 0 1.5-0.1 2.1-0.1zM699.4 337.9c-61.1 0-110.8-49.7-110.8-110.8s49.7-110.8 110.8-110.8S810.2 166 810.2 227.1s-49.7 110.8-110.8 110.8z m0-181.6c-39 0-70.8 31.8-70.8 70.8s31.8 70.8 70.8 70.8 70.8-31.8 70.8-70.8-31.7-70.8-70.8-70.8z" p-id="9000"></path></svg>