<?xml version="1.0" standalone="no"?><!DOCTYPE svg PUBLIC "-//W3C//DTD SVG 1.1//EN" "http://www.w3.org/Graphics/SVG/1.1/DTD/svg11.dtd"><svg t="1719056472499" class="icon" viewBox="0 0 1024 1024" version="1.1" xmlns="http://www.w3.org/2000/svg" p-id="25517" xmlns:xlink="http://www.w3.org/1999/xlink" width="13" height="13"><path d="M432 779.05c53.017 0 96 42.967 96 95.975C528 928.033 485.017 971 432 971s-96-42.967-96-95.975c0-53.008 42.983-95.975 96-95.975z m234.667 0c53.016 0 96 42.967 96 95.975 0 53.008-42.984 95.975-96 95.975-53.017 0-96-42.967-96-95.975 0-53.008 42.983-95.975 96-95.975z m64-725.05c15.96 0 32.216 4.64 49.11 13.248l1.562 0.806c5.21 2.724 10.483 5.822 15.826 9.274l1.605 1.046 0.804 0.531 1.612 1.078 0.807 0.547c18.97 12.898 38.983 30.262 60.241 51.705l2.204 2.233 1.105 1.128a795.963 795.963 0 0 1 14.957 15.727l2.52 2.732a924.965 924.965 0 0 1 3.794 4.157l2.541 2.812 2.55 2.844a1122.17 1122.17 0 0 1 15.512 17.75l2.623 3.075c0.877 1.03 1.755 2.067 2.636 3.108l2.647 3.142 2.66 3.176 2.673 3.21 2.686 3.243 3.443 4.182 2.24 2.733 2.21 2.708 2.191 2.697 2.235 2.763 2.241 2.782 3.172 3.96 3.716 4.666 2.88 3.636 5.569 7.068 5.482 6.996 10.535 13.511a32 32 0 0 1 4.816 30.59L888.739 523.44a32.26 32.26 0 0 1-0.363 0.949l0.233-0.598-0.18 0.467-0.053 0.13-85.333 213.25a32 32 0 0 1-29.71 20.112H314.667c-14.683 0-27.482-9.992-31.044-24.236l-52.66-210.555-75.756-170.384H80c-17.496 0-31.713-14.042-31.996-31.47l-0.004-0.53c0-17.496 14.042-31.713 31.47-31.996l0.53-0.004h96a32 32 0 0 1 29.058 18.598l0.182 0.401L282.125 480.5h351.149L468.112 186.993c-8.88-15.78-2.9-35.737 13.094-44.068l0.488-0.249 4.85-2.482 40.653-21.15 9.979-5.163 6.981-3.581 4.011-2.032 3.675-1.832 2.968-1.467 2.949-1.445 2.93-1.424 1.457-0.705 2.902-1.392 2.883-1.372 1.435-0.678 2.857-1.34c0.95-0.443 1.896-0.883 2.84-1.32l2.823-1.297c0.469-0.215 0.937-0.429 1.405-0.641l2.798-1.267c0.465-0.21 0.93-0.418 1.394-0.626l2.775-1.235 2.76-1.215 2.744-1.193c0.913-0.395 1.823-0.786 2.73-1.173l2.717-1.152c2.003-0.844 3.994-1.671 5.975-2.481a32.098 32.098 0 0 1 4.934-3.47 31.86 31.86 0 0 1 14.948-4.21l1.92-0.691 2.584-0.916c18.484-6.49 36.27-11.41 54.012-14.81C698.439 55.684 714.785 54 730.667 54z" p-id="25518" data-spm-anchor-id="a313x.search_index.0.i67.42e13a81AotUVu" fill="#707070" class="selected"></path></svg>