<?xml version="1.0" standalone="no"?><!DOCTYPE svg PUBLIC "-//W3C//DTD SVG 1.1//EN" "http://www.w3.org/Graphics/SVG/1.1/DTD/svg11.dtd"><svg t="1719056580084" class="icon" viewBox="0 0 1024 1024" version="1.1" xmlns="http://www.w3.org/2000/svg" p-id="27743" xmlns:xlink="http://www.w3.org/1999/xlink" width="13" height="13"><path d="M718.629 54.857H305.372c-56.686 0-104.229 47.543-104.229 104.229v704c0 58.514 47.543 104.229 104.229 104.229h411.429c58.514 0 104.229-47.543 104.229-104.229v-704c1.829-56.686-45.714-104.229-102.4-104.229zM768 864.914c0 27.429-21.943 49.371-49.371 49.371H305.372c-27.429 0-49.371-21.943-49.371-49.371V159.085c0-27.429 21.943-49.371 49.371-49.371h411.429c29.257 0 51.2 21.943 51.2 49.371v705.829zM576 473.6h-76.8l69.486-102.4c9.143-12.8 5.486-29.257-7.314-38.4s-29.257-5.486-38.4 7.314l-98.743 144.457c-5.486 9.143-7.314 20.114-1.829 27.429 5.486 9.143 14.629 14.629 23.771 14.629H524.8l-74.971 124.343c-7.314 12.8-3.657 29.257 9.143 38.4 3.657 1.829 9.143 3.657 14.629 3.657 9.143 0 18.286-5.486 23.771-12.8l98.743-166.4c5.486-9.143 5.486-18.286 0-27.429-1.829-7.314-10.971-12.8-20.114-12.8z m-84.114 338.286c-5.486 5.486-7.314 12.8-7.314 20.114v5.486c0 1.829 1.829 3.657 1.829 5.486s1.829 3.657 1.829 5.486c1.829 1.829 1.829 3.657 3.657 3.657 5.486 5.486 12.8 7.314 20.114 7.314s14.629-3.657 20.114-7.314c1.829-1.829 1.829-3.657 3.657-3.657 0-1.829 1.829-3.657 1.829-5.486s1.829-3.657 1.829-5.486V832c0-7.314-3.657-14.629-7.314-20.114-10.971-9.143-29.257-9.143-40.229 0z m-25.6-592.457h91.429c14.629 0 27.429-12.8 27.429-27.429s-12.8-27.429-27.429-27.429h-91.429c-14.629 0-27.429 12.8-27.429 27.429s12.8 27.429 27.429 27.429z" p-id="27744" data-spm-anchor-id="a313x.search_index.0.i75.42e13a81AotUVu" fill="#707070" class="selected"></path></svg>