<?xml version="1.0" standalone="no"?><!DOCTYPE svg PUBLIC "-//W3C//DTD SVG 1.1//EN" "http://www.w3.org/Graphics/SVG/1.1/DTD/svg11.dtd"><svg t="1719056062215" class="icon" viewBox="0 0 1024 1024" version="1.1" xmlns="http://www.w3.org/2000/svg" p-id="21025" data-spm-anchor-id="a313x.search_index.0.i51.42e13a81AotUVu" xmlns:xlink="http://www.w3.org/1999/xlink" width="13" height="13"><path d="M946.191562 278.779444c9.111778 9.111778 9.111778 18.325935 0 27.437712L781.667666 470.741052C775.524895 473.812438 771.020196 475.34813 767.94881 475.34813L512 475.34813l0 530.223555C512 1017.754849 505.857229 1023.795241 493.674065 1023.795241L420.575085 1023.795241c-12.183163 0-18.325935-6.040392-18.325935-18.325935L402.24915 475.34813l-383.923215 0C6.245151 475.34813 0.10238 469.307738 0.10238 457.022196L0.10238 127.974405c0-12.183163 6.142771-18.325935 18.325935-18.325935l383.923215 0L402.35153 18.325935C402.35153 6.142771 408.391922 0 420.575085 0l73.09898 0C505.857229 0 512 6.142771 512 18.325935l0 91.424915 255.94881 0c3.071386 0 7.576085 1.535693 13.718856 4.607079L946.191562 278.779444zM907.389722 292.4983 761.089382 146.30034 36.65187 146.30034l0 292.4983 724.437512 0L907.389722 292.4983zM438.90102 109.64847l36.54949 0L475.45051 36.54949 438.90102 36.54949 438.90102 109.64847zM475.45051 475.34813 438.90102 475.34813l0 511.89762 36.54949 0L475.45051 475.34813z" p-id="21026" data-spm-anchor-id="a313x.search_index.0.i52.42e13a81AotUVu" class="" fill="#707070"></path></svg>