<?xml version="1.0" standalone="no"?><!DOCTYPE svg PUBLIC "-//W3C//DTD SVG 1.1//EN" "http://www.w3.org/Graphics/SVG/1.1/DTD/svg11.dtd"><svg t="1719056118292" class="icon" viewBox="0 0 1024 1024" version="1.1" xmlns="http://www.w3.org/2000/svg" p-id="22418" xmlns:xlink="http://www.w3.org/1999/xlink" width="13" height="13"><path d="M786.467095 445.280436 786.467095 327.85912c0-144.400784-117.055996-261.457804-261.457804-261.457804l-29.571503 0c-144.399761 0-261.455757 117.055996-261.455757 261.457804l0 117.420293-87.12429 0 0 514.726088 726.731596 0L873.589338 445.280436 786.467095 445.280436zM322.605465 327.85912c0-95.311763 77.523631-172.835394 172.833347-172.835394l29.571503 0c95.312786 0 172.835394 77.523631 172.835394 172.835394l0 117.420293L322.605465 445.279413 322.605465 327.85912zM510.224564 779.300882c-42.354644 0-76.657914-34.302247-76.657914-76.657914s34.304294-76.657914 76.657914-76.657914c42.355667 0 76.704986 34.302247 76.704986 76.657914S552.580231 779.300882 510.224564 779.300882z" fill="#707070" p-id="22419" data-spm-anchor-id="a313x.search_index.0.i56.42e13a81AotUVu" class="selected"></path></svg>