<?xml version="1.0" standalone="no"?><!DOCTYPE svg PUBLIC "-//W3C//DTD SVG 1.1//EN" "http://www.w3.org/Graphics/SVG/1.1/DTD/svg11.dtd"><svg t="1719056539517" class="icon" viewBox="0 0 1024 1024" version="1.1" xmlns="http://www.w3.org/2000/svg" p-id="26601" xmlns:xlink="http://www.w3.org/1999/xlink" width="13" height="13"><path d="M658.304 147.696c0 78.272-63.456 141.728-141.728 141.728s-141.728-63.456-141.728-141.728c0-78.272 63.456-141.728 141.728-141.728 78.272 0 141.728 63.456 141.728 141.728z" p-id="26602" fill="#707070"></path><path d="M516.336 585.664l-149.824 0 0-108.16-114.56 115.328c-51.76 51.776-121.936-14.592-70.08-66.448l189.696-190.08c15.392-15.28 32.24-25.008 58.96-25.008l170.128 0c26.72 0 44.768 9.424 60.592 25.008l191.616 191.936c49.36 49.344-22.672 116.352-70.048 66.496l-117.568-117.84 0 108.752-148.928 0.016z" p-id="26603" fill="#707070"></path><path d="M664.624 641.776l-112.592 112.624 82.64 82.496-84.688 84.704c-50.016 50 18.976 121.488 70.656 69.776l133.968-139.28c28.736-29.328 36.688-83.504 5.872-114.32-0.096-0.128-95.872-96-95.872-96z" p-id="26604" data-spm-anchor-id="a313x.search_index.0.i71.42e13a81AotUVu" fill="#707070" class="selected"></path><path d="M366.544 641.776l112.608 112.624-82.64 82.496 84.688 84.704c50 50-18.96 121.488-70.656 69.776l-133.952-139.264c-28.768-29.328-36.704-83.504-5.872-114.32 0.08-0.144 95.856-96.016 95.856-96.016z" p-id="26605" fill="#707070"></path></svg>