<?xml version="1.0" standalone="no"?><!DOCTYPE svg PUBLIC "-//W3C//DTD SVG 1.1//EN" "http://www.w3.org/Graphics/SVG/1.1/DTD/svg11.dtd"><svg t="1719049054905" class="icon" viewBox="0 0 1024 1024" version="1.1" xmlns="http://www.w3.org/2000/svg" p-id="13807" xmlns:xlink="http://www.w3.org/1999/xlink" width="13" height="13"><path d="M512 514m-448 0a448 448 0 1 0 896 0 448 448 0 1 0-896 0Z" fill="#1afa29" p-id="13808" data-spm-anchor-id="a313x.search_index.0.i41.42e13a81AotUVu" class="selected"></path><path d="M512 512m-253.15 0a253.15 253.15 0 1 0 506.3 0 253.15 253.15 0 1 0-506.3 0Z" fill="#FFFFFF" p-id="13809"></path><path d="M512 512m-203.07 0a203.07 203.07 0 1 0 406.14 0 203.07 203.07 0 1 0-406.14 0Z" fill="#D1F0C7" p-id="13810"></path><path d="M622.12 497h-91.31a24.09 24.09 0 0 0-11.46-7.92V360.22a6 6 0 0 0-6-6h-2.81a6 6 0 0 0-6 6v128.93a24.06 24.06 0 1 0 26.19 38.08h91.49a6 6 0 0 0 6-6V503a6 6 0 0 0-6.1-6z" fill="#69B452" p-id="13811"></path></svg>