<?xml version="1.0" standalone="no"?><!DOCTYPE svg PUBLIC "-//W3C//DTD SVG 1.1//EN" "http://www.w3.org/Graphics/SVG/1.1/DTD/svg11.dtd"><svg t="1719056793348" class="icon" viewBox="0 0 1024 1024" version="1.1" xmlns="http://www.w3.org/2000/svg" p-id="30542" xmlns:xlink="http://www.w3.org/1999/xlink" width="13" height="13"><path d="M234.666667 170.666667a85.333333 85.333333 0 1 1 85.333333 85.333333 85.333333 85.333333 0 0 1-85.333333-85.333333z m176.64 153.173333A85.333333 85.333333 0 0 0 350.72 298.666667H289.28a85.333333 85.333333 0 0 0-60.586667 25.173333l-32.853333 32.853333A85.333333 85.333333 0 0 0 170.666667 417.28v201.386667a21.333333 21.333333 0 0 0 21.333333 21.333333h42.666667v277.333333a21.333333 21.333333 0 0 0 21.333333 21.333334h128a21.333333 21.333333 0 0 0 21.333333-21.333334V640h42.666667a21.333333 21.333333 0 0 0 21.333333-21.333333V417.28a85.333333 85.333333 0 0 0-25.173333-60.586667zM704 256a85.333333 85.333333 0 1 0-85.333333-85.333333 85.333333 85.333333 0 0 0 85.333333 85.333333z m165.973333 399.786667l-90.453333-325.973334a42.666667 42.666667 0 0 0-42.666667-31.146666h-64.426666a42.666667 42.666667 0 0 0-42.666667 31.146666l-97.28 325.973334A21.333333 21.333333 0 0 0 554.666667 682.666667h85.333333v234.666666a21.333333 21.333333 0 0 0 21.333333 21.333334h85.333334a21.333333 21.333333 0 0 0 21.333333-21.333334V682.666667h81.493333a21.333333 21.333333 0 0 0 20.48-26.88z" p-id="30543" data-spm-anchor-id="a313x.search_index.0.i87.42e13a81AotUVu" class="selected" fill="#707070"></path></svg>