<?xml version="1.0" standalone="no"?><!DOCTYPE svg PUBLIC "-//W3C//DTD SVG 1.1//EN" "http://www.w3.org/Graphics/SVG/1.1/DTD/svg11.dtd"><svg t="1719058188377" class="icon" viewBox="0 0 1024 1024" version="1.1" xmlns="http://www.w3.org/2000/svg" p-id="7683" xmlns:xlink="http://www.w3.org/1999/xlink" width="13" height="13"><path d="M519.04 224H96v400c0 97.28 78.72 176 176 176h528c70.4 0 128-57.6 128-128v-39.04c0-225.28-183.68-408.96-408.96-408.96z m156.16 256c17.92 17.92 35.2 57.6 46.72 92.8l-129.92-1.92c-34.56-1.28-66.56-15.36-87.68-39.04-8.96-10.24-16-20.48-21.12-33.28-2.56-6.4-5.76-12.16-8.96-18.56h200.96z m113.92 94.08a458.88 458.88 0 0 0-36.48-94.08h74.24c14.72 29.44 25.6 61.44 31.36 95.36l-69.12-1.28z m-4.48-158.08H437.76c-39.04-58.88-81.28-99.84-120.96-128H518.4c108.16 0 202.88 50.56 266.24 128z m15.36 320H272c-61.44 0-112-50.56-112-112V288h3.84c12.8 1.92 165.12 28.16 260.48 236.16 7.04 17.92 17.92 35.2 32 50.56 33.28 36.48 81.92 58.88 133.76 60.16l228.48 5.12h45.44v32c0 35.2-28.8 64-64 64zM96 864h832v64h-832zM96 96h435.2v64H96z" fill="#8a8a8a" p-id="7684" data-spm-anchor-id="a313x.search_index.0.i7.18703a819tLTCu" class="selected"></path></svg>