<?xml version="1.0" standalone="no"?><!DOCTYPE svg PUBLIC "-//W3C//DTD SVG 1.1//EN" "http://www.w3.org/Graphics/SVG/1.1/DTD/svg11.dtd"><svg t="1719056681933" class="icon" viewBox="0 0 1024 1024" version="1.1" xmlns="http://www.w3.org/2000/svg" p-id="29483" xmlns:xlink="http://www.w3.org/1999/xlink" width="13" height="13"><path d="M912.354743 0c2.4576 0 4.798171 0.965486 6.524343 2.691657a9.069714 9.069714 0 0 1 2.720914 6.436572v1005.714285a9.069714 9.069714 0 0 1-2.720914 6.465829 9.303771 9.303771 0 0 1-6.524343 2.691657H111.645257a9.303771 9.303771 0 0 1-6.524343-2.691657 9.069714 9.069714 0 0 1-2.720914-6.436572V9.128229a9.069714 9.069714 0 0 1 2.720914-6.436572A9.303771 9.303771 0 0 1 111.645257 0h800.709486z m-189.761829 786.285714H194.9696c-20.48 0-37.039543 16.384-37.039543 36.571429v91.428571c0 20.187429 16.5888 36.571429 37.039543 36.571429h527.623314c20.450743 0 37.010286-16.384 37.010286-36.571429v-91.428571c0-20.187429-16.559543-36.571429-37.010286-36.571429z m-0.263314 41.632915v87.157028H213.109029v-87.186286h509.220571z m32.650971-795.911315H171.8272a9.186743 9.186743 0 0 0-9.274514 9.128229v676.571428c0 5.061486 4.154514 9.157486 9.274514 9.157486l54.125714-0.029257v-49.269029c0-4.9152 3.949714-8.923429 8.8064-8.923428h52.779886a8.952686 8.952686 0 0 1 8.777143 8.894171v49.298286h60.094171v-49.269029c0-4.9152 3.949714-8.923429 8.777143-8.923428h52.779886c4.856686 0 8.777143 4.008229 8.777143 8.923428v49.269029h60.094171v-49.269029c0-4.9152 3.949714-8.923429 8.777143-8.923428h52.779886c4.856686 0 8.777143 4.008229 8.777143 8.923428v49.269029h60.094171v-49.269029c0-2.369829 0.936229-4.651886 2.603886-6.319542a8.747886 8.747886 0 0 1 6.202514-2.603886h52.779886a8.952686 8.952686 0 0 1 8.777143 8.894171v49.298286h67.349942a9.303771 9.303771 0 0 0 6.5536-2.633143 9.069714 9.069714 0 0 0 2.691658-6.495086v-105.442742H168.842971v-17.759086h57.1392v-89.000229c0-4.9152 3.920457-8.894171 8.777143-8.894171h52.779886c4.856686 0 8.777143 3.978971 8.777143 8.894171v89.000229h60.094171v-89.000229c0-4.9152 3.949714-8.894171 8.777143-8.894171h52.779886c4.856686 0 8.777143 3.978971 8.777143 8.894171v89.000229h60.094171v-89.000229c0-4.9152 3.949714-8.894171 8.777143-8.894171h52.779886c4.856686 0 8.777143 3.978971 8.777143 8.894171v89.000229H617.325714v-89.000229c0-2.340571 0.906971-4.622629 2.574629-6.290285a8.747886 8.747886 0 0 1 6.202514-2.633143h52.779886a8.952686 8.952686 0 0 1 8.777143 8.894171v89.029486l76.5952-0.029257v-154.243657H168.842971v-17.788343h57.1392v-88.970972c0-4.9152 3.920457-8.923429 8.777143-8.923428h52.779886c4.856686 0 8.777143 4.008229 8.777143 8.923428v88.970972h60.094171v-88.970972c0-4.9152 3.949714-8.923429 8.777143-8.923428h52.779886c4.856686 0 8.777143 4.008229 8.777143 8.923428v88.970972h60.094171v-88.970972c0-4.9152 3.949714-8.923429 8.777143-8.923428h52.779886c4.856686 0 8.777143 4.008229 8.777143 8.923428v88.970972H617.325714v-88.970972c0-2.369829 0.906971-4.651886 2.574629-6.319543a8.747886 8.747886 0 0 1 6.202514-2.603885h52.779886a8.952686 8.952686 0 0 1 8.777143 8.894171v89.000229h76.5952V268.170971H168.842971V250.441143h57.1392V161.411657c0-4.9152 3.920457-8.894171 8.777143-8.894171h52.779886c4.856686 0 8.777143 3.978971 8.777143 8.894171v89.000229h60.094171V161.411657c0-4.9152 3.949714-8.894171 8.777143-8.894171h52.779886c4.856686 0 8.777143 3.978971 8.777143 8.894171v89.000229h60.094171V161.411657c0-4.9152 3.949714-8.894171 8.777143-8.894171h52.779886c4.856686 0 8.777143 3.978971 8.777143 8.894171v89.000229H617.325714V161.411657c0-2.340571 0.906971-4.622629 2.574629-6.290286a8.747886 8.747886 0 0 1 6.202514-2.633142h52.779886a8.952686 8.952686 0 0 1 8.777143 8.894171V250.441143l76.5952-0.029257V41.135543a9.069714 9.069714 0 0 0-2.691657-6.436572 9.303771 9.303771 0 0 0-6.5536-2.691657z m111.089372 438.857143h-55.559314a9.303771 9.303771 0 0 0-6.524343 2.6624 9.069714 9.069714 0 0 0-2.720915 6.465829v91.428571a9.069714 9.069714 0 0 0 2.720915 6.465829c1.726171 1.726171 4.096 2.691657 6.524343 2.691657h55.559314a9.303771 9.303771 0 0 0 6.524343-2.691657 9.069714 9.069714 0 0 0 2.720914-6.436572v-91.457828a9.186743 9.186743 0 0 0-9.245257-9.128229z m0-160.007314h-55.559314a9.303771 9.303771 0 0 0-6.524343 2.691657 9.069714 9.069714 0 0 0-2.720915 6.436571v91.457829a9.069714 9.069714 0 0 0 2.720915 6.436571c1.726171 1.755429 4.096 2.691657 6.524343 2.691658h55.559314a9.303771 9.303771 0 0 0 6.524343-2.691658 9.069714 9.069714 0 0 0 2.720914-6.436571v-91.457829a9.186743 9.186743 0 0 0-9.245257-9.128228z" fill="#707070" p-id="29484" data-spm-anchor-id="a313x.search_index.0.i83.42e13a81AotUVu" class=""></path></svg>