<?xml version="1.0" standalone="no"?><!DOCTYPE svg PUBLIC "-//W3C//DTD SVG 1.1//EN" "http://www.w3.org/Graphics/SVG/1.1/DTD/svg11.dtd"><svg t="1719147102797" class="icon" viewBox="0 0 1024 1024" version="1.1" xmlns="http://www.w3.org/2000/svg" p-id="3424" xmlns:xlink="http://www.w3.org/1999/xlink" width="200" height="200"><path d="M992.200295 771.338434l28.453951 57.325902c7.857986 15.829973 1.393998 35.03194-14.435975 42.889926l-130.929775 65.771887c-32.097945 15.933973-71.111878 2.387996-86.377852-30.109948L663.35686 640.00066H383.99934c-31.849945 0-58.851899-23.41996-63.357891-54.949906C252.865565 110.61757 256.759559 140.089519 255.99956 128.00154c0-72.715875 60.635896-131.269774 134.10377-127.85778 66.541886 3.089995 120.095794 57.809901 121.84979 124.401786 1.735997 65.865887-46.30392 120.845792-109.215812 130.077776l9.339984 65.379888H671.998845c17.67397 0 31.999945 14.325975 31.999945 31.999945v63.99989c0 17.67397-14.325975 31.999945-31.999945 31.999945H430.36326l9.143985 63.99989H703.99879a63.99989 63.99989 0 0 1 57.9239 36.783937L876.952493 793.600396l72.355875-36.697937c15.829973-7.857986 35.03394-1.393998 42.891927 14.435975zM622.71493 704.00055h-49.011916c-15.575973 108.407814-109.055813 191.99967-221.703619 191.99967-123.513788 0-223.999615-100.485827-223.999615-223.999615 0-83.009857 45.387922-155.617733 112.647806-194.311666-7.423987-51.929911-13.687976-95.719835-18.975967-132.665772C91.911842 396.929078 0 523.92686 0 672.000605c0 194.093666 157.905729 351.999395 351.999395 351.999395 143.739753 0 267.61154-86.615851 322.219446-210.383638L622.71493 704.00055z" p-id="3425" data-spm-anchor-id="a313x.search_index.0.i2.1eac3a81tHeah0" fill="#707070" class="selected"></path></svg>