<?xml version="1.0" standalone="no"?><!DOCTYPE svg PUBLIC "-//W3C//DTD SVG 1.1//EN" "http://www.w3.org/Graphics/SVG/1.1/DTD/svg11.dtd"><svg t="1719123723140" class="icon" viewBox="0 0 1024 1024" version="1.1" xmlns="http://www.w3.org/2000/svg" p-id="12909" xmlns:xlink="http://www.w3.org/1999/xlink" width="200" height="200"><path d="M997.507966 272.52016L851.95061 124.763448l-0.799766-2.199355c-1.199649-3.399004-3.299033-6.698038-6.498096-9.897101-3.099092-3.099092-6.298155-5.198477-9.597188-6.398125l-2.199356-0.799766-78.776921-79.97657-0.09997-0.199941C739.083677 8.997364 718.789622 0 696.696095 0c-22.193498 0-43.58723 9.097335-60.082398 25.692473l-618.818705 622.517622c-4.898565 4.898565-7.397833 9.497218-7.397833 13.596016v0.199942L0.000205 1006.205213c0 1.499561 0 6.098213 3.399004 9.697159 1.699502 2.099385 3.199063 3.099092 4.598653 3.998829 1.999414 1.299619 7.997657 3.698916 12.996192 3.698916l340.700186-3.498975h3.498975c0.899736 0 1.799473-0.099971 2.699209-0.299912l0.399883-0.099971 0.399883-0.09997c11.996485-1.899444 12.996193-8.097628 13.795958-9.997071 0.299912-0.599824 0.399883-1.099678 0.499854-1.499561 0.099971-0.399883 0.299912-0.999707 0.599824-1.499561 4.698623-11.096749 0.699795-19.194377-4.798594-24.692766l-314.907742-318.406716L663.905701 59.982427c8.797423-8.797423 19.094406-13.396075 29.791273-13.396075s20.993849 4.598653 29.791272 13.396075l71.579029 71.57903-533.943571 537.442546c-9.8971 9.8971-9.8971 20.793908 0 30.790979l1.199649 1.199648 0.699795 1.499561c1.099678 2.099385 6.798008 4.798594 11.696573 4.798594 3.998828 0 11.996485-2.299326 17.094991-7.397832l533.943572-537.542517 140.058967 140.058967c10.496925 6.398126 14.395782 20.693937 14.395782 29.091477 0 9.697159-4.498682 19.194377-13.396075 28.09177L459.265655 870.744899c-9.8971 9.8971-9.8971 20.793908 0 30.790979 4.898565 4.898565 10.197013 7.397833 15.395489 7.397833 5.198477 0 10.496925-2.599239 15.39549-7.397833l507.551303-511.25022c15.49546-15.595431 24.792737-37.588988 24.792737-58.882749 0-23.193205-7.897686-41.887728-24.892708-58.882749zM324.205223 985.411305L41.687992 988.610368l9.597188-276.119106 272.920043 272.920043z" fill="#FFC64B" p-id="12910"></path><path d="M998.607644 1023.500146H537.442751c-13.795958 0-24.992678-11.19672-24.992678-24.992677s11.19672-24.992678 24.992678-24.992678h461.264864c13.795958 0 24.992678 11.19672 24.992678 24.992678-0.099971 13.795958-11.29669 24.992678-25.092649 24.992677zM258.324524 703.79381c-9.79713-9.79713-9.79713-25.592502 0-35.389632l555.037391-555.037391c9.79713-9.79713 25.592502-9.79713 35.389632 0 9.79713 9.79713 9.79713 25.592502 0 35.389632L293.714156 703.79381c-9.79713 9.79713-25.592502 9.79713-35.389632 0z" fill="#212121" p-id="12911"></path></svg>