<?xml version="1.0" standalone="no"?><!DOCTYPE svg PUBLIC "-//W3C//DTD SVG 1.1//EN" "http://www.w3.org/Graphics/SVG/1.1/DTD/svg11.dtd"><svg t="1719123642483" class="icon" viewBox="0 0 1024 1024" version="1.1" xmlns="http://www.w3.org/2000/svg" p-id="8877" xmlns:xlink="http://www.w3.org/1999/xlink" width="200" height="200"><path d="M976.9 483.1c-11.9-51.2-32.6-99.8-61.2-144.3-28.1-43.7-63.1-82.3-104.1-114.8-41.3-32.7-87.6-58.2-137.3-75.8-51.4-18.1-105.5-27.4-160.7-27.4-55.9 0-110.7 9.4-162.8 28.1-50.4 18-97 44.2-138.6 77.7-41.3 33.3-76.3 72.8-104.2 117.5-28.5 45.6-48.6 95.2-59.8 147.4-7.7 36.1 11.4 72.7 45.4 87.1l331.7 141-55.2 21.2c-20.6 7.9-31.8 28.7-26.9 49.5 8.3 34.7 29.6 66 60.2 88.3 30.3 22 68.3 34.2 107.3 34.2 38.9 0 75.7-11.5 106.1-33.3 30.3-21.7 51.9-52.4 60.6-86.3 5.4-20.8-6-42.4-26.4-50.4l-59.8-23.4 341.6-147.7c34-14.6 52.8-52 44.1-88.6z m-322.1-280c43.7 15.4 84.3 37.8 120.6 66.6 5.7 4.6 11.4 9.3 16.9 14.1L643.9 426.7c-32-18.1-66.2-29.6-101.3-33.9L541.2 180c39 2.4 77.1 10.3 113.6 23.1zM248.7 272c36.5-29.5 77.5-52.4 121.7-68.2 36.3-13 74.1-20.9 112.6-23.7l1.4 212.1c-35.4 3.7-70 14.7-102.5 32.5L235 283.6c4.5-4 9.1-7.8 13.7-11.6zM116.3 525c-8.4-3.6-13.1-12.5-11.1-21.2 14.1-65.8 45-127.3 89-178.8l138.5 133.2c-37.2 30.9-69.3 71.4-94.4 118.6l-122-51.8z m466.3 307.3c-20.2 14.5-45.8 22.5-72.2 22.5-48.1 0-90.6-26.4-106.4-64.4l104.7-40.3L616 792c-6.8 15.5-18.4 29.5-33.4 40.3z m-66.7-143.8c-4.8 2.1-10.2 2.1-14.9 0l-208.8-88.8c22.9-41.8 52-76.9 85.4-102.8 40.6-31.3 86.9-47.9 133.6-47.9 46.3 0 92.1 16.3 132.5 47 33.1 25.1 62 59.6 84.8 100.5l-212.6 92z m393.4-170.1l-127.2 55c-24.1-44.4-54.5-82.8-89.7-112.6L833 325.4c12.2 14.2 23.3 29.2 33.4 44.9 25 38.9 43.1 81.4 53.5 126.1 2.5 9.1-2.1 18.3-10.6 22z m0 0" fill="#181818" p-id="8878"></path></svg>